<?xml version="1.0" encoding="UTF-8"?>
<svg fill="none" viewBox="0 0 400 141" xmlns="http://www.w3.org/2000/svg">
<path d="m127.36 46.921c0-25.024-13.406-40.665-40.218-46.921 13.406 9.3842 18.434 20.332 15.082 32.845-1.912 7.1389-7.4611 12.241-13.604 17.889-10.006 9.2006-21.587 19.849-21.587 43.108 0 25.024 13.406 40.664 40.218 46.92-13.406-9.384-18.433-20.332-15.081-32.844 1.9122-7.139 7.4612-12.242 13.603-17.89 10.006-9.2006 21.587-19.849 21.587-43.108z" clip-rule="evenodd" fill="url(#b)" fill-rule="evenodd"/>
<path d="m-1.1182e-6 46.921c5.9637e-7 -25.024 13.406-40.665 40.218-46.921-13.406 9.3842-18.433 20.332-15.082 32.845 1.9122 7.1389 7.4612 12.241 13.604 17.889 10.006 9.2006 21.587 19.849 21.587 43.108 0 25.024-13.406 40.664-40.218 46.92 13.406-9.384 18.433-20.332 15.082-32.844-1.9122-7.139-7.4612-12.242-13.604-17.89-10.006-9.2007-21.587-19.849-21.587-43.108z" clip-rule="evenodd" fill="url(#a)" fill-rule="evenodd"/>
<path d="m202.38 63.832h-15.792v30.566c0 8.151 5.349 8.023 15.792 7.514v12.354c-21.141 2.547-29.546-3.312-29.546-19.868v-30.566h-11.717v-13.245h11.717v-17.106l13.754-4.0754v21.181h15.792v13.245zm85.296-13.245h14.518l-19.995 63.679h-13.5l-13.245-42.92-13.372 42.92h-13.5l-19.995-63.679h14.519l12.353 43.938 13.373-43.938h13.118l13.245 43.938 12.481-43.938zm31.584-9.5518c-4.84 0-8.788-4.0754-8.788-8.7876 0-4.8395 3.948-8.7876 8.788-8.7876s8.788 3.9481 8.788 8.7876c0 4.7122-3.948 8.7876-8.788 8.7876zm-6.877 73.23v-63.679h13.754v63.679h-13.754zm63.169-65.334c14.263 0 24.452 9.6791 24.452 26.236v39.099h-13.755v-37.698c0-9.6791-5.603-14.773-14.263-14.773-9.043 0-16.175 5.349-16.175 18.339v34.132h-13.754v-63.679h13.754v8.1508c4.203-6.6226 11.08-9.8065 19.741-9.8065z" clip-rule="evenodd" fill="#EDF0F2" fill-rule="evenodd"/>
<defs>
<linearGradient id="b" x1="187.68" x2="80.429" y1="-5.2134" y2="194.09" gradientUnits="userSpaceOnUse">
<stop stop-color="#C100E0" offset=".31771"/>
<stop stop-color="#0042EB" offset=".875"/>
</linearGradient>
<linearGradient id="a" x1="-60.327" x2="46.927" y1="-5.2134" y2="194.09" gradientUnits="userSpaceOnUse">
<stop stop-color="#C100E0" offset=".31771"/>
<stop stop-color="#0042EB" offset=".875"/>
</linearGradient>
</defs>
</svg>
